<svg id="Layer_1" enable-background="new 0 0 512 512" height="512" viewBox="0 0 512 512" width="512" xmlns="http://www.w3.org/2000/svg"><g><path d="m512 37.85v436.3c0 20.87-16.98 37.85-37.85 37.85h-436.3c-20.87 0-37.85-16.98-37.85-37.85v-436.3c0-20.87 16.98-37.85 37.85-37.85h436.3c20.87 0 37.85 16.98 37.85 37.85z" fill="#51697a"/><path d="m512 37.85v436.3c0 20.87-16.98 37.85-37.85 37.85h-26c20.91 0 37.85-16.94 37.85-37.85v-436.3c0-20.91-16.94-37.85-37.85-37.85h26c20.87 0 37.85 16.98 37.85 37.85z" fill="#354c5b"/><path d="m271.875 39.249h200.876v166.785h-200.876z" fill="#5cd5ff"/><path d="m39.249 39.249h200.876v243.305h-200.876z" fill="#5cd5ff"/><path d="m212.844 39.249h27.282v243.305h-27.282z" fill="#5ab5ff"/><path d="m445.469 39.249h27.282v166.785h-27.282z" fill="#5ab5ff"/><path d="m39.249 314.303h84.564v158.448h-84.564z" fill="#e5f5f9"/><path d="m155.562 314.303h84.563v158.448h-84.563z" fill="#ffeb31"/><path d="m271.875 237.783h200.876v234.968h-200.876z" fill="#ffce00"/><path d="m219.844 314.303h20.282v158.448h-20.282z" fill="#ffce00"/><path d="m103.532 314.303h20.282v158.448h-20.282z" fill="#bfd5dd"/><g fill="#51697a"><path d="m95.908 386.027h-6.877v-6.877c0-4.143-3.357-7.5-7.5-7.5s-7.5 3.357-7.5 7.5v6.877h-6.877c-4.143 0-7.5 3.357-7.5 7.5s3.357 7.5 7.5 7.5h6.877v6.876c0 4.143 3.357 7.5 7.5 7.5s7.5-3.357 7.5-7.5v-6.876h6.877c4.143 0 7.5-3.357 7.5-7.5s-3.357-7.5-7.5-7.5z"/><path d="m212.221 386.027h-6.877v-6.877c0-4.143-3.357-7.5-7.5-7.5s-7.5 3.357-7.5 7.5v6.877h-6.877c-4.143 0-7.5 3.357-7.5 7.5s3.357 7.5 7.5 7.5h6.877v6.876c0 4.143 3.357 7.5 7.5 7.5s7.5-3.357 7.5-7.5v-6.876h6.877c4.143 0 7.5-3.357 7.5-7.5s-3.358-7.5-7.5-7.5z"/><path d="m154.064 153.401h-6.877v-6.877c0-4.143-3.357-7.5-7.5-7.5s-7.5 3.357-7.5 7.5v6.877h-6.877c-4.143 0-7.5 3.357-7.5 7.5s3.357 7.5 7.5 7.5h6.877v6.877c0 4.143 3.357 7.5 7.5 7.5s7.5-3.357 7.5-7.5v-6.877h6.877c4.143 0 7.5-3.357 7.5-7.5s-3.357-7.5-7.5-7.5z"/><path d="m386.689 115.142h-6.877v-6.877c0-4.143-3.357-7.5-7.5-7.5s-7.5 3.357-7.5 7.5v6.877h-6.877c-4.143 0-7.5 3.357-7.5 7.5s3.357 7.5 7.5 7.5h6.877v6.877c0 4.143 3.357 7.5 7.5 7.5s7.5-3.357 7.5-7.5v-6.877h6.877c4.143 0 7.5-3.357 7.5-7.5s-3.357-7.5-7.5-7.5z"/><path d="m386.689 347.768h-6.877v-6.877c0-4.143-3.357-7.5-7.5-7.5s-7.5 3.357-7.5 7.5v6.877h-6.877c-4.143 0-7.5 3.357-7.5 7.5s3.357 7.5 7.5 7.5h6.877v6.877c0 4.143 3.357 7.5 7.5 7.5s7.5-3.357 7.5-7.5v-6.877h6.877c4.143 0 7.5-3.357 7.5-7.5s-3.357-7.5-7.5-7.5z"/></g><path d="m445.469 237.783h27.282v234.968h-27.282z" fill="#ff8f33"/></g></svg>